<?xml version="1.0" encoding="UTF-8"?>
<!DOCTYPE svg PUBLIC "-//W3C//DTD SVG 1.1//EN" "http://www.w3.org/Graphics/SVG/1.1/DTD/svg11.dtd">
<!-- Creator: CorelDRAW 2020 (64-Bit Evaluation Version) -->
<svg xmlns="http://www.w3.org/2000/svg" xml:space="preserve" width="33.1529mm" height="14.5961mm" version="1.1" style="shape-rendering:geometricPrecision; text-rendering:geometricPrecision; image-rendering:optimizeQuality; fill-rule:evenodd; clip-rule:evenodd"
viewBox="0 0 1079.02 475.06"
 xmlns:xlink="http://www.w3.org/1999/xlink"
 xmlns:xodm="http://www.corel.com/coreldraw/odm/2003">
 <defs>
  <style type="text/css">
   <![CDATA[
    .fil0 {fill:#18AD8B;fill-rule:nonzero}
   ]]>
  </style>
 </defs>
 <g id="Слой_x0020_1">
  <metadata id="CorelCorpID_0Corel-Layer"/>
  <path class="fil0" d="M632.14 475.06c-1.19,-15.51 -5.61,-30.29 -15.55,-42.85 -5.81,-7.36 -11.12,-13.67 -15.88,-19.31 -27.56,-32.72 -35.81,-42.51 -6.24,-99.97 11.52,-22.39 18,-35.49 22.66,-49.44 4.65,-13.93 7.43,-28.57 11.51,-54 4.48,-28.28 3.99,-53.75 -2.45,-77.28 -6.45,-23.56 -18.83,-45.12 -38.11,-65.58l-0.14 -0.16 -0.21 -0.12c-39.02,-24.22 -84.49,-8.89 -124.37,4.57l-3.67 1.24c-14.21,4.78 -25.71,11.13 -37.39,17.57 -11.27,6.22 -22.71,12.54 -36.88,17.57 -6.1,2.16 -11.33,4.1 -16.01,5.84 -24.01,8.88 -33.57,12.42 -68.51,13.34l-2.93 0.08c-24.19,0.53 -41.66,3.65 -57.91,10.4 -16.23,6.74 -31.15,17.08 -50.28,32.08 -18.12,14.27 -34.36,29.95 -49.42,46.88 -15.04,16.91 -28.91,35.05 -42.29,54.27l-0.01 0.02c-5.21,7.66 -14.5,15.12 -26.03,24.36 -20.28,16.26 -47.38,38 -72,76.52l0 6.63c25.1,-40.97 53.24,-63.54 74.1,-80.27 11.75,-9.43 21.24,-17.03 26.75,-25.13 13.31,-19.11 27.08,-37.14 42.01,-53.91 14.91,-16.77 31,-32.31 48.97,-46.45 18.88,-14.82 33.59,-25 49.47,-31.61 15.86,-6.59 32.98,-9.63 56.73,-10.17l2.94 -0.07c35.49,-0.94 45.19,-4.53 69.57,-13.55 4.69,-1.73 9.93,-3.67 15.97,-5.82 14.41,-5.12 25.99,-11.51 37.38,-17.79 11.55,-6.37 22.93,-12.65 36.84,-17.33l3.67 -1.23c39.13,-13.2 83.73,-28.24 121.38,-5.02 18.78,19.97 30.83,40.96 37.1,63.85 6.28,22.97 6.76,47.92 2.35,75.68 -4.05,25.24 -6.79,39.74 -11.35,53.41 -4.56,13.67 -11.01,26.67 -22.45,48.91 -30.7,59.68 -22.08,69.91 6.7,104.09 4.76,5.64 10.07,11.95 15.82,19.22 9.37,11.85 13.57,25.82 14.74,40.54l3.46 0zm-632.14 -233.24c32.04,-44.77 63.65,-84.77 82.05,-102.3l2.34 -2.23c57.84,-55.1 76.88,-73.24 153.42,-100.7 1.5,-0.54 8.46,-4.65 18.84,-11.03 10.6,-6.53 24.95,-15.51 40.78,-25.55l-6.71 0c-13.78,8.72 -26.25,16.52 -35.81,22.4 -10.21,6.29 -16.96,10.29 -18.21,10.74 -77.2,27.7 -96.38,45.97 -154.63,101.46l-2.33 2.23c-18.03,17.17 -48.53,55.59 -79.75,98.98l0 6.01zm2.51 233.24l3.45 0c1.19,-12.61 2.97,-25.65 5.28,-39.06 10.54,-58.51 54.77,-74.95 88.34,-87.44 20.69,-7.69 37.47,-13.93 40.87,-27.73 10.39,-42.34 36.9,-79.8 71.72,-106.37 34.82,-26.57 77.93,-42.25 121.53,-41.06l0.26 -0.01c23.47,-3.13 32,-13.05 41.97,-24.63 7.88,-9.16 16.69,-19.4 35.1,-27.95 12.76,-5.93 29.13,-12.99 45.71,-18.25 16.49,-5.23 33.19,-8.69 46.76,-7.49 14.47,1.29 27.03,5.03 37.93,11.7 10.89,6.66 20.17,16.26 28.1,29.25 17.29,28.63 26.58,48.3 29.22,68.91 2.64,20.62 -1.35,42.41 -10.61,75.28 -5.8,20.59 -15.42,32.57 -23.8,43.01 -7.03,8.75 -13.22,16.46 -15.82,27.27 -2.97,12.38 2.65,27.81 8.2,43.03 3.17,8.71 6.33,17.36 7.73,25.12l1.31 7.14c1.66,12.77 1.7,31.19 -0.1,49.29l3.46 0c1.79,-18.31 1.73,-36.91 0.04,-49.85l-1.31 -7.26c-1.47,-8.09 -4.68,-16.88 -7.9,-25.74 -5.35,-14.69 -10.77,-29.58 -8.07,-40.86 2.39,-10 8.34,-17.4 15.1,-25.81 8.6,-10.7 18.47,-22.99 24.48,-44.33 9.4,-33.36 13.43,-55.55 10.71,-76.78 -2.72,-21.24 -12.17,-41.3 -29.73,-70.37 -8.24,-13.51 -17.91,-23.49 -29.28,-30.44 -11.37,-6.96 -24.4,-10.85 -39.38,-12.19 -14.05,-1.25 -31.18,2.28 -48.04,7.63 -16.75,5.32 -33.24,12.44 -46.11,18.41 -19.06,8.85 -28.14,19.4 -36.27,28.85 -9.48,11.02 -17.62,20.47 -39.73,23.45 -44.34,-1.17 -88.14,14.76 -123.5,41.74 -35.44,27.05 -62.43,65.22 -73.04,108.41 -2.93,11.93 -18.94,17.88 -38.68,25.22 -34.38,12.78 -79.67,29.62 -90.58,90.2 -2.33,13.63 -4.15,26.89 -5.34,39.73zm42.13 0l3.58 0c0.71,-2.75 1.57,-5.53 2.58,-8.32 3.36,-9.3 4.41,-18.86 5.44,-28.24 3.01,-27.46 5.84,-53.35 70.14,-63.12 1.6,-0.14 3.76,-0.29 6.37,-0.46 14.26,-0.96 41.58,-2.8 47.09,-7.63l0.02 -0.02c4.63,-4.19 9.16,-8.82 13.73,-13.5 14.1,-14.45 28.72,-29.42 48.07,-32.5l1.37 -0.19c1.71,-0.21 2.41,-0.28 2,-2.28l-0.01 -0.06c-0.23,-0.98 -0.59,-1.07 -1.21,-1.35 -0.93,-0.42 -4.82,-2.2 -4.08,-12.75 0.65,-9.39 2.81,-25.84 5.57,-40.98 2.17,-11.93 4.72,-23.02 7.19,-29.13 13.96,-34.54 49.07,-31.5 80.11,-28.83 5.84,0.51 11.54,1 17.09,1.23 8.2,0.35 15.04,0.29 21.83,-0.38 6.83,-0.68 13.58,-1.99 21.56,-4.13l0.03 -0.02c6.93,-2 13.11,-2.77 18.56,-2.47 8.17,0.44 14.69,3.32 19.67,8.08 5.03,4.81 8.55,11.58 10.67,19.75 2.09,8.02 2.82,17.4 2.32,27.63 -0.45,9.19 -1.79,17.53 -3.96,25.61 -2.16,8.09 -5.15,15.94 -8.89,24.17 -1.96,4 2.24,11.82 7.94,22.41 8.54,15.89 20.66,38.42 19.97,60.69l-0.15 5.11c-0.99,34.67 -1.12,39.44 -45.42,69.68 -7.97,5.44 -14.02,9.28 -18.54,12.01l6.81 0c3.76,-2.37 8.25,-5.31 13.6,-8.97 45.8,-31.27 45.95,-36.27 46.98,-72.61l0.15 -5.11c0.72,-23.29 -11.67,-46.35 -20.41,-62.6 -5.16,-9.61 -8.98,-16.7 -7.87,-18.96l0.02 -0.05c3.84,-8.43 6.9,-16.49 9.13,-24.79 2.23,-8.33 3.62,-16.92 4.08,-26.41 0.51,-10.59 -0.26,-20.35 -2.44,-28.76 -2.29,-8.84 -6.14,-16.2 -11.67,-21.48 -5.58,-5.33 -12.81,-8.53 -21.83,-9.02 -5.79,-0.32 -12.32,0.5 -19.62,2.6 -7.85,2.09 -14.43,3.37 -21.03,4.03 -6.62,0.66 -13.31,0.71 -21.37,0.37 -5.29,-0.23 -11.05,-0.73 -16.96,-1.23 -32.2,-2.78 -68.62,-5.92 -83.55,31.03 -2.57,6.38 -5.19,17.73 -7.41,29.87 -2.78,15.28 -4.95,31.9 -5.62,41.41 -0.51,7.38 1.07,11.43 2.8,13.67 -19.39,3.92 -33.89,18.77 -47.89,33.12 -4.52,4.63 -9,9.22 -13.54,13.33 -4.66,4.06 -31.24,5.86 -45.12,6.79 -2.77,0.19 -5.06,0.35 -6.46,0.47l-0.11 0.01c-67,10.16 -69.99,37.42 -73.15,66.32 -1,9.15 -2.02,18.48 -5.23,27.35 -1.17,3.24 -2.14,6.45 -2.94,9.62zm61.99 0l3.68 0c2.95,-7.97 6.69,-15.73 11.15,-22.83 10.65,-16.98 25.29,-30.22 42.4,-33.85 12.86,-2.72 14.77,-4.39 17.12,-6.44 1.26,-1.09 2.65,-2.31 6.73,-4.01l0.13 -0.05 0.14 -0.09c7.79,-5.14 15.38,-10.33 22.92,-15.5 12.01,-8.22 23.9,-16.37 37.05,-24.52 6.68,-4.15 21.93,-14.93 32.25,-25.96 6.75,-7.21 11.45,-14.66 10.62,-20.77 -0.53,-3.93 -3.06,-7.83 -5.77,-12.03 -5.71,-8.82 -12.39,-19.13 0.94,-31.7 4.46,-4.21 8.93,-6.61 13.2,-7.48 3.65,-0.74 7.17,-0.36 10.41,0.95 3.29,1.34 6.32,3.65 8.95,6.73 4.32,5.07 7.56,12.25 9.11,20.76 1.18,6.41 1.52,10.65 1.73,13.37 0.28,3.43 0.4,4.96 1.92,5.87 1.1,0.66 2.28,0.47 4.4,0.13 3.5,-0.56 10.17,-1.63 23.21,-0.04 14.33,2.86 27.77,11.31 37.91,22.97 9.97,11.47 16.76,26.04 18.06,41.45 1.45,17.18 -1.87,31.64 -9.12,43.33 -7.64,12.33 -19.66,21.64 -35.06,27.88 -8.89,3.61 -14.81,4.5 -19.11,5.14 -8.6,1.29 -11.39,1.71 -17.19,16.69l3.74 0c4.73,-11.71 7.18,-12.08 13.95,-13.09 4.45,-0.66 10.57,-1.59 19.86,-5.36 16.06,-6.51 28.65,-16.29 36.7,-29.29 7.66,-12.36 11.18,-27.59 9.66,-45.62 -1.37,-16.23 -8.49,-31.55 -18.95,-43.58 -10.66,-12.25 -24.8,-21.12 -39.9,-24.11l-0.12 -0.02c-13.53,-1.65 -20.5,-0.53 -24.15,0.05 -1.37,0.22 -2.14,0.34 -2.19,0.31 -0.07,-0.04 -0.01,-0.9 -0.18,-3.01 -0.22,-2.79 -0.57,-7.11 -1.79,-13.75 -1.68,-9.16 -5.21,-16.94 -9.94,-22.49 -2.99,-3.51 -6.47,-6.15 -10.27,-7.69 -3.85,-1.57 -8,-2.01 -12.3,-1.14 -4.86,0.99 -9.89,3.67 -14.85,8.35 -15.57,14.71 -7.98,26.43 -1.48,36.45 2.48,3.83 4.78,7.39 5.2,10.49 0.66,4.8 -3.6,11.24 -9.66,17.72 -10.09,10.77 -25.01,21.32 -31.54,25.37 -13.22,8.2 -25.15,16.36 -37.18,24.61 -7.35,5.04 -14.75,10.12 -22.72,15.36 -4.47,1.88 -6.08,3.28 -7.52,4.53 -2,1.74 -3.62,3.16 -15.6,5.69 -18.1,3.84 -33.49,17.68 -44.59,35.4 -4.84,7.71 -8.87,16.16 -11.97,24.84zm709.37 0l3.43 0c-7.58,-42.43 -21.69,-93.63 -35.52,-143.83 -17.54,-63.66 -34.64,-125.67 -37.32,-165.56 -1.87,-27.71 -8.6,-56.96 -19.21,-85.75 -10.21,-27.68 -24,-54.91 -40.5,-79.91l-4.21 0c16.97,25.35 31.12,53.06 41.5,81.21 10.49,28.44 17.14,57.34 18.98,84.7 2.71,40.24 19.86,102.45 37.46,166.32 13.76,49.91 27.79,100.84 35.4,142.82zm161.11 0l3.51 0c-2,-12.33 -4.59,-24.66 -7.71,-36.9 -20.81,-81.68 -64.96,-159.24 -110.36,-202.24 -1.61,-1.53 -3.25,-3.03 -4.91,-4.5 -9.07,-8.07 -13.48,-45.34 -19.42,-95.5 -4.72,-39.81 -10.38,-87.68 -20.29,-135.91l-3.52 0c9.95,48.2 15.65,96.35 20.38,136.35 6.03,50.97 10.52,88.84 20.62,97.83 1.59,1.42 3.2,2.9 4.83,4.44 44.96,42.57 88.69,119.45 109.33,200.48 3.04,11.93 5.57,23.95 7.54,35.96zm32.06 0l3.45 0c-17.91,-188.66 -86.86,-244.72 -120.2,-271.8 -9.27,-7.53 -15.71,-12.75 -17.18,-17.65 -15.68,-52 -18.58,-81.66 -21.56,-112.03 -2.1,-21.46 -4.24,-43.27 -10.91,-73.58l-3.53 0c6.76,30.47 8.91,52.4 11.02,73.95 2.99,30.55 5.91,60.37 21.71,112.76 1.8,5.99 8.58,11.49 18.34,19.43 32.95,26.77 101.04,82.11 118.86,268.93zm10.06 -475.06l-3.88 0c10.72,21.65 21.43,44.32 31.83,67.74 9.91,22.29 19.54,45.27 28.66,68.69l3.19 -1.38c-9.14,-23.48 -18.8,-46.51 -28.73,-68.85 -10.15,-22.84 -20.6,-45 -31.07,-66.2zm-865.98 0l-5.63 0 -1.23 1c-2.58,2.09 -5.11,4.1 -7.53,6.02 -13.58,10.75 -24.69,20.15 -34.84,28.75 -30.18,25.55 -51.95,44 -104,68.13l0 3.97c53.47,-24.66 75.51,-43.31 106.16,-69.27 10.17,-8.61 21.29,-18.02 34.75,-28.68 2.72,-2.15 5.24,-4.16 7.56,-6.04 1.55,-1.26 3.14,-2.55 4.77,-3.89z"/>
 </g>
</svg>
