<svg xmlns="http://www.w3.org/2000/svg" viewBox="0 0 67.57 20.5">
  <defs>
    <style>
      .cls-1 {
        fill: #1a1a18;
        fill-rule: evenodd;
      }
    </style>
  </defs>
  <title>Asset 1</title>
  <g id="Layer_2" data-name="Layer 2">
    <g id="_1" data-name="1">
      <path class="cls-1" d="M3.59.07H0V4.64H1.7V3.56H3.59A1.67,1.67,0,0,0,5.34,1.81,1.67,1.67,0,0,0,3.59.07ZM3.26,2.13H1.7V1.5H3.26c.17,0,.38,0,.38.31s-.21.32-.38.32Zm8-.32A1.67,1.67,0,0,0,9.47.07H5.88V4.64h1.7V3.56h1l.63,1.08h2l-.81-1.32a1.69,1.69,0,0,0,.81-1.51ZM7.58,1.5H9.14c.17,0,.38,0,.38.31s-.21.32-.38.32H7.58V1.5Zm9-.13V.07H11.76V4.64h4.83V3.33H13.46V2.91h3.13V1.8H13.46V1.37ZM17.06,3c0,1.36,1.05,1.68,2.92,1.68s2.92-.32,2.92-1.58S21.78,1.8,20,1.73c-1,0-1.15,0-1.15-.21s.16-.21,1-.21S21,1.36,21,1.6H22.7c0-1.17-1-1.6-2.78-1.6s-2.79.43-2.79,1.44.79,1.4,2.85,1.47c1.07,0,1.22,0,1.22.25s-.15.23-1.15.23S18.76,3.24,18.76,3ZM28.27,1.37V.07H23.44V4.64h4.83V3.33H25.14V2.91h3.13V1.8H25.14V1.37ZM33,.07V2.76L31,.07H28.81V4.64h1.7V1.94l2,2.7H34.7V.07Zm7.85,0H35.24V1.5h2V4.64h1.69V1.5h2V.07Zm3.87,4.57-.31-.83H42.46l-.31.83H40.28L42.18.07H44.7l1.89,4.57Zm-1.81-2H44l-.52-1.4-.53,1.4ZM51.57.07H46V1.5h2V4.64h1.7V1.5h2V.07Zm2.23,0H52.11V4.64H53.8V.07ZM57.15,4.7c2,0,2.87-.77,2.87-2.36S59.16,0,57.15,0s-2.87.76-2.87,2.34.86,2.36,2.87,2.36Zm0-1.44c-1,0-1.17-.43-1.17-.92s.17-.9,1.17-.9,1.18.43,1.18.9-.18.92-1.18.92ZM64.75.07V2.76l-2-2.69H60.56V4.64h1.7V1.94l2,2.7h2.22V.07ZM31.61,8.81c0,1.6.87,2.36,2.88,2.36,1.83,0,2.78-.65,2.85-2.1H35.6c-.06.44-.4.66-1.11.66-1,0-1.18-.43-1.18-.92s.17-.91,1.18-.91c.71,0,1,.22,1.11.65h1.74c-.07-1.44-1-2.08-2.85-2.08-2,0-2.88.76-2.88,2.34Zm11.1-1V6.53H37.88V11.1h4.83V9.8H39.58V9.37h3.13V8.26H39.58V7.84Zm4.73-1.31v2.7l-2-2.7H43.25V11.1H45V8.41l2,2.69h2.22V6.53Zm7.85,0H49.68V8h2V11.1h1.69V8h2V6.53Zm5.37,1.31V6.53H55.83V11.1h4.83V9.8H57.53V9.37h3.13V8.26H57.53V7.84Zm5.88.44a1.67,1.67,0,0,0-1.75-1.75H61.2V11.1h1.7V10h1l.63,1.07h2l-.81-1.31a1.69,1.69,0,0,0,.81-1.51ZM62.9,8h1.57c.17,0,.37,0,.37.31s-.2.32-.37.32H62.9V8ZM2,16.08c1.37,0,2-.58,2-1.61s-.59-1.6-2-1.6-2,.56-2,1.6.58,1.61,2,1.61Zm0-.68c-.84,0-1.16-.29-1.16-.93s.32-.93,1.16-.93,1.16.3,1.16.93-.33.93-1.16.93ZM7.8,13.59v-.68H4.5V16h.8v-1H7.53v-.68H5.3v-.79Zm6.43-.68H10.4v.68h1.51V16h.81V13.59h1.51v-.68Zm3.88,0v1.22H15.56V12.91h-.8V16h.8V14.81h2.55V16h.8V12.91Zm4.72.64v-.64h-3.3V16h3.3V15.4H20.34v-.64h2.49v-.58H20.34v-.63ZM25.43,15c0,.9.76,1.12,2,1.12s2-.17,2-1-.76-.85-2-.92c-.91-.05-1.1-.1-1.1-.34s.19-.3,1-.3,1.18.08,1.18.42h.8c0-.77-.71-1.06-1.89-1.06s-1.86.22-1.86.9.54.92,1.9,1c1,.05,1.19.09,1.19.35s-.26.34-1.1.34c-1,0-1.29-.15-1.29-.48ZM33,12.91l-1.25,2.53-1.25-2.53h-.9L31.17,16h1.1l1.6-3.12Zm4.66.64v-.64h-3.3V16h3.3V15.4h-2.5v-.64h2.5v-.58h-2.5v-.63Zm4.21.51a1.11,1.11,0,0,0-1.2-1.15H38.19V16H39V15.2h1.29l.51.83h.94l-.57-.92a1.07,1.07,0,0,0,.68-1ZM39,13.59h1.43c.24,0,.61,0,.61.47s-.37.47-.61.47H39v-.94Zm5.64-.68H42.37V16h2.26a1.44,1.44,0,0,0,1.52-1.56,1.44,1.44,0,0,0-1.52-1.56Zm-.3,2.45H43.17V13.59h1.16c.61,0,1,.13,1,.88s-.41.89-1,.89Zm3.18,0V12.91h-.8V16h3.21v-.67Zm4.75.72c1.37,0,2-.58,2-1.61s-.59-1.6-2-1.6-2,.56-2,1.6.59,1.61,2,1.61Zm0-.68c-.83,0-1.16-.29-1.16-.93s.32-.93,1.16-.93,1.16.3,1.16.93-.32.93-1.16.93Zm5.43-2.49-1.25,2.53-1.26-2.53h-.9L55.89,16H57l1.61-3.12ZM58.78,15c0,.9.76,1.12,2,1.12s2-.17,2-1-.77-.85-2-.92c-.91-.05-1.09-.1-1.09-.34s.18-.3,1-.3,1.18.08,1.18.42h.8c0-.77-.71-1.06-1.89-1.06s-1.87.22-1.87.9.54.92,1.9,1c1,.05,1.19.09,1.19.35s-.25.34-1.09.34c-1,0-1.29-.15-1.29-.48Zm8.79-2.05H66.35l-2.22,1.62V12.91h-.81V16h.81v-.59l1-.7L66.46,16h1.11L65.68,14.3l1.89-1.39ZM3.71,18.48a1.11,1.11,0,0,0-1.2-1.15H.06v3.12h.8v-.83h1.3l.5.83h.95L3,19.52a1.06,1.06,0,0,0,.68-1ZM.86,18H2.29c.24,0,.62,0,.62.48s-.38.46-.62.46H.86V18Zm6.68,0v-.64H4.24v3.12h3.3v-.64H5v-.63h2.5V18.6H5V18ZM10,19.3h1.16c0,.24-.33.58-1.11.58-1,0-1.18-.59-1.18-1S9,18,10,18c.85,0,1.06.35,1.11.59h.81c0-.78-.67-1.26-1.92-1.26s-2,.57-2,1.6.71,1.61,1.86,1.61A1.89,1.89,0,0,0,11.31,20l0,.49h.59V18.78H10v.52Zm3.36-2h-.81v3.12h.81V17.33Zm2.49,3.17c1.37,0,2-.58,2-1.61s-.6-1.6-2-1.6-2,.56-2,1.6.59,1.61,2,1.61Zm0-.68c-.83,0-1.15-.29-1.15-.93S15,18,15.81,18s1.16.29,1.16.93-.32.93-1.16.93Zm5.74-2.49v2.34l-2.13-2.34H18.33v3.12h.81V18.11l2.12,2.34h1.1V17.33Z"/>
    </g>
  </g>
</svg>
