<?xml version="1.0" encoding="UTF-8"?>
<!DOCTYPE svg PUBLIC "-//W3C//DTD SVG 1.1//EN" "http://www.w3.org/Graphics/SVG/1.1/DTD/svg11.dtd">
<!-- Creator: CorelDRAW 2020 (64-Bit Evaluation Version) -->
<svg xmlns="http://www.w3.org/2000/svg" xml:space="preserve" width="22.6903mm" height="5.6503mm" version="1.1" style="shape-rendering:geometricPrecision; text-rendering:geometricPrecision; image-rendering:optimizeQuality; fill-rule:evenodd; clip-rule:evenodd"
viewBox="0 0 330.65 82.34"
 xmlns:xlink="http://www.w3.org/1999/xlink"
 xmlns:xodm="http://www.corel.com/coreldraw/odm/2003">
 <defs>
  <style type="text/css">
   <![CDATA[
    .fil0 {fill:#2B2A29;fill-rule:nonzero}
   ]]>
  </style>
 </defs>
 <g id="Слой_x0020_1">
  <metadata id="CorelCorpID_0Corel-Layer"/>
  <path class="fil0" d="M316.05 0l8.98 0 0 4.06 -8.98 0 0 -4.06zm-217.77 56.14l0 2.34 0 1.85 1.01 0 0 3.52 -1.01 0 -3.98 0 -11.5 0 -3.98 0 -1.78 0 0 -3.52 1.78 0 0 -4.2c0,-5.19 2.7,-7.78 8.96,-7.97l0 -0.01 0.77 0 9.72 0 0.01 7.67c0,0.1 0,0.21 0,0.31zm-3.98 4.2l0 -1.6 0 -0.27 -0.01 -6.98 -5.74 0 -0.56 0 0 0.01c-4.63,0.18 -5.19,2.55 -5.19,4.63l0 4.2 11.5 0zm155.97 14.28l0 2.34 0 5.38 -3.98 0 0 -5.12 0 -0.27 -0.01 -6.98 -5.74 0 -0.56 0 0 0.01c-4.64,0.18 -5.19,2.55 -5.19,4.63l0 7.72 -3.98 0 0 -7.72c0,-5.19 2.7,-7.78 8.96,-7.97l0 -0.01 0.77 0 9.72 0 0.01 7.68c0,0.1 0,0.21 0,0.31zm-21.7 -30.88l10.42 0 0 2.82 -10.42 0 0 -2.82zm86.11 22.9l0 11.63 10.57 -11.63 5.4 0 0 15.48 -3.98 0 0 -11.61 -10.55 11.61 -5.42 0 0 -15.48 3.98 0zm-5.29 0l-19.02 0 0 3.34 7.52 0 0 12.14 3.98 0 0 -12.14 7.52 0 0 -3.34zm-38.63 7.72c0,5.15 2.92,7.98 9.73,7.98 6.17,0 9.26,-2.37 9.66,-6.85l-4.05 0c-0.38,2.52 -2.32,3.52 -5.62,3.52 -4.02,0 -5.75,-1.46 -5.75,-4.64 0,-3.16 1.7,-4.6 5.75,-4.6 3.32,0 5.24,0.97 5.62,3.47l4.05 0c-0.4,-4.47 -3.49,-6.81 -9.66,-6.81 -6.81,0 -9.73,2.81 -9.73,7.94zm-3.37 7.76l4.4 0 -8 -15.48 -5.37 0 -7.98 15.48 4.38 0 1.66 -3.29 9.26 0 1.66 3.29zm-9.44 -6.26l3.16 -6.28 3.14 6.28 -6.3 0zm-30.25 -2.15c-2.05,-1.03 -3.87,-1 -4.8,-1l-0.02 0 -8.21 0 0 -3.21 14.46 0 0 -2.88 -18.44 0 0 15.48 14.15 0c3.52,0 5.04,-1.9 5.04,-4.51 0,-1.79 -0.86,-3.07 -2.19,-3.89zm-3.83 5.33l-9.2 0 0 -3.27 9.2 0c1.06,0 2.04,0 2.04,1.63 0,1.64 -0.97,1.64 -2.04,1.64zm-24.09 3.3c6.79,0 9.73,-2.85 9.73,-7.98 0,-5.11 -2.94,-7.94 -9.73,-7.94 -6.81,0 -9.73,2.81 -9.73,7.94 0,5.15 2.92,7.98 9.73,7.98zm0 -3.34c-4.13,0 -5.75,-1.46 -5.75,-4.64 0,-3.16 1.59,-4.6 5.75,-4.6 4.16,0 5.75,1.46 5.75,4.6 0,3.16 -1.61,4.64 -5.75,4.64zm27.87 -30.83l0 11.63 10.57 -11.63 5.4 0 0 15.48 -3.98 0 0 -11.61 -10.55 11.61 -5.42 0 0 -15.48 3.98 0zm-15.16 15.7c6.79,0 9.73,-2.85 9.73,-7.98 0,-5.11 -2.94,-7.94 -9.73,-7.94 -6.81,0 -9.73,2.81 -9.73,7.94 0,5.15 2.92,7.98 9.73,7.98zm0 -3.34c-4.13,0 -5.75,-1.46 -5.75,-4.64 0,-3.16 1.59,-4.6 5.75,-4.6 4.16,0 5.75,1.46 5.75,4.6 0,3.16 -1.61,4.64 -5.75,4.64zm-8.39 -12.36l-6.04 0 -11.03 8.03 0 -8.03 -3.98 0 0 15.48 3.98 0 0 -2.96 4.75 -3.47 6.81 6.43 5.51 0 -9.37 -8.6 9.37 -6.88zm-41.88 7.72c0,5.15 2.92,7.98 9.73,7.98 6.17,0 9.26,-2.36 9.66,-6.85l-4.05 0c-0.38,2.52 -2.32,3.52 -5.62,3.52 -4.02,0 -5.75,-1.46 -5.75,-4.64 0,-3.16 1.7,-4.6 5.75,-4.6 3.32,0 5.24,0.97 5.62,3.47l4.05 0c-0.4,-4.47 -3.49,-6.81 -9.66,-6.81 -6.81,0 -9.73,2.81 -9.73,7.94zm-2.97 -0.64c0.78,-0.86 1.22,-1.92 1.22,-3.01 0,-2.28 -1.09,-4.07 -4.6,-4.07l-13.62 0 0 15.48 14.15 0c3.52,0 5.04,-1.9 5.04,-4.51 0,-1.79 -0.86,-3.07 -2.19,-3.89zm-13.02 -4.2l8.2 0c1.08,0 2.06,0 2.06,1.59 0,1.61 -0.97,1.61 -2.03,1.61l-0.02 0 -8.2 0 0 -3.21zm9.2 9.53l-9.2 0 0 -3.27 9.2 0c1.06,0 2.03,0 2.03,1.64 0,1.64 -0.97,1.64 -2.03,1.64zm-24.35 3.29c6.79,0 9.73,-2.85 9.73,-7.98 0,-5.11 -2.94,-7.94 -9.73,-7.94 -6.81,0 -9.73,2.81 -9.73,7.94 0,5.15 2.92,7.98 9.73,7.98zm0 -3.34c-4.13,0 -5.75,-1.46 -5.75,-4.64 0,-3.16 1.59,-4.6 5.75,-4.6 4.16,0 5.75,1.46 5.75,4.6 0,3.16 -1.62,4.64 -5.75,4.64zm-11.03 -4.38l0 2.34 0 5.38 -3.98 0 0 -5.12 0 -0.27 -0.01 -6.98 -5.74 0 -0.56 0 0 0.01c-4.64,0.18 -5.19,2.55 -5.19,4.63l0 7.72 -3.98 0 0 -7.72c0,-5.19 2.7,-7.78 8.96,-7.97l0 -0.01 0.77 0 9.72 0 0.01 7.67c0,0.1 0,0.21 0,0.31zm-48.6 -7.98l-12.16 0 0 15.48 3.98 0 0 -4.13 8.18 0c3.52,0 5.93,-2.21 5.93,-5.66 0,-3.45 -2.41,-5.68 -5.93,-5.68zm-1.11 8l-7.07 0 0 -4.66 7.07 0c1.19,0 3.05,0 3.05,2.34 0,2.32 -1.86,2.32 -3.05,2.32zm-12.5 -4.84l0 -3.16 -16.36 0 0 15.48 16.36 0 0 -3.16 -12.38 0 0 -3.14 12.38 0 0 -2.88 -12.38 0 0 -3.14 12.38 0zm-19.86 3.91c0.77,-0.86 1.22,-1.92 1.22,-3.01 0,-2.28 -1.08,-4.07 -4.6,-4.07l-13.62 0 0 15.48 14.15 0c3.52,0 5.04,-1.9 5.04,-4.51 0,-1.79 -0.86,-3.07 -2.19,-3.89zm-13.02 -4.2l8.2 0c1.08,0 2.06,0 2.06,1.59 0,1.61 -0.97,1.61 -2.03,1.61l-0.02 0 -8.2 0 0 -3.21zm9.2 9.53l-9.2 0 0 -3.27 9.2 0c1.06,0 2.03,0 2.03,1.64 0,1.64 -0.97,1.64 -2.03,1.64zm-34.01 -4.69c0,5.15 2.92,7.98 9.73,7.98 6.17,0 9.26,-2.36 9.66,-6.85l-4.05 0c-0.38,2.52 -2.32,3.52 -5.62,3.52 -4.02,0 -5.75,-1.46 -5.75,-4.64 0,-3.16 1.7,-4.6 5.75,-4.6 3.32,0 5.24,0.97 5.62,3.47l4.05 0c-0.4,-4.47 -3.49,-6.81 -9.66,-6.81 -6.81,0 -9.73,2.81 -9.73,7.94zm324.42 -31.17l-12.45 0 0 15.85 5.89 0 0 -3.71 6.56 0c3.6,0 6.07,-2.54 6.07,-6.07 0,-3.53 -2.47,-6.07 -6.07,-6.07zm-1.13 7.15l-5.43 0 0 -2.17 5.43 0c0.59,0 1.31,0 1.31,1.09 0,1.09 -0.72,1.09 -1.31,1.09zm-13.19 -7.15l-19.47 0 0 4.98 6.79 0 0 10.87 5.89 0 0 -10.87 6.79 0 0 -4.98zm-26.6 0l0 5.44 -9.28 0 0 -5.44 -5.89 0 0 15.85 5.89 0 0 -5.43 9.28 0 0 5.43 5.89 0 0 -15.85 -5.89 0zm-17.04 4.53l0 -4.53 -16.76 0 0 15.85 16.76 0 0 -4.53 -10.87 0 0 -1.47 10.87 0 0 -3.85 -10.87 0 0 -1.47 10.87 0zm-43.32 -4.53l5.89 0 0 10.87 10.42 0 0 -10.87 5.89 0 0 10.88 2.45 0 0 4.97 -2.45 0 -1.73 0 -14.58 0 -5.89 0 0 -15.85zm-201.1 -3.4l-5.89 0 0 -10.87 -10.42 0 0 10.87 -5.89 0 0 -15.85 16.3 0 5.89 0 0 15.85zm293.92 -15.85l0 9.35 6.84 -9.35 7.7 0 0 15.85 -5.89 0 0 -9.35 -6.84 9.35 -7.7 0 0 -15.85 5.89 0zm-7.99 0l-5.89 0 0 15.85 5.89 0 0 -15.85zm-13.83 15.62l-12.45 0 0 -15.85 5.89 0 0 3.71 6.57 0c3.6,0 6.07,2.54 6.07,6.07 0,3.53 -2.47,6.07 -6.07,6.07zm-1.13 -7.15l-5.43 0 0 2.17 5.43 0c0.59,0 1.31,0 1.31,-1.09 0,-1.09 -0.72,-1.09 -1.31,-1.09zm-19.31 -8.47l0 5.44 -9.28 0 0 -5.44 -5.89 0 0 15.85 5.89 0 0 -5.44 9.28 0 0 5.44 5.89 0 0 -15.85 -5.89 0zm-23.16 0l0 5.44 -9.28 0 0 -5.44 -5.89 0 0 15.85 5.89 0 0 -5.44 9.28 0 0 5.44 5.89 0 0 -15.85 -5.89 0zm-27 16.08c6.95,0 9.96,-2.67 9.96,-8.17 0,-5.48 -3.01,-8.13 -9.96,-8.13 -6.97,0 -9.96,2.63 -9.96,8.13 0,5.53 2.99,8.17 9.96,8.17zm0 -4.98c-3.47,0 -4.08,-1.49 -4.08,-3.19 0,-1.68 0.59,-3.15 4.08,-3.15 3.49,0 4.07,1.49 4.07,3.15 0,1.68 -0.61,3.19 -4.07,3.19zm-26.15 -11.1l0 9.35 6.84 -9.35 7.7 0 0 15.85 -5.89 0 0 -9.35 -6.84 9.35 -7.7 0 0 -15.85 5.89 0zm-40.39 15.85l6.48 0 -6.57 -15.85 -8.74 0 -6.57 15.85 6.47 0 1.09 -2.85 6.75 0 1.09 2.85zm-6.3 -6.93l1.83 -4.85 1.83 4.85 -3.67 0zm-7.12 -8.92l-19.47 0 0 4.98 6.79 0 0 10.87 5.89 0 0 -10.87 6.79 0 0 -4.98zm-27.23 0l0 5.44 -9.28 0 0 -5.44 -5.89 0 0 15.85 5.89 0 0 -5.44 9.28 0 0 5.44 5.89 0 0 -15.85 -5.89 0zm-17.04 4.53l0 -4.53 -16.76 0 0 15.85 16.76 0 0 -4.53 -10.87 0 0 -1.47 10.87 0 0 -3.85 -10.87 0 0 -1.47 10.87 0zm-20.87 3.4c1.43,-0.75 2.24,-1.83 2.24,-3.4 0,-3.71 -3.19,-4.76 -8.76,-4.76 -5.5,0 -9.22,1.04 -9.22,6.23l5.89 0c0,-1.24 1.36,-1.24 3.56,-1.24 2.08,0 2.65,0 2.65,0.81 0,1 -0.57,1 -4.91,1l0 2.72c4.35,0 4.91,0 4.91,1 0,0.81 -0.57,0.81 -2.65,0.81 -2.2,0 -3.56,0 -3.56,-1.24l-5.89 0c0,5.18 3.71,6.23 9.22,6.23 5.57,0 8.76,-1.04 8.76,-4.76 0,-1.56 -0.81,-2.65 -2.24,-3.4zm-17.38 -3.4l0 -4.53 -16.76 0 0 15.85 16.76 0 0 -4.53 -10.87 0 0 -1.47 10.87 0 0 -3.85 -10.87 0 0 -1.47 10.87 0zm-24.7 -4.53l-12.45 0 0 15.85 5.89 0 0 -3.71 6.57 0c3.6,0 6.07,-2.54 6.07,-6.07 0,-3.53 -2.47,-6.07 -6.07,-6.07zm-1.13 7.16l-5.43 0 0 -2.17 5.43 0c0.59,0 1.31,0 1.31,1.09 0,1.09 -0.73,1.09 -1.31,1.09zm128.99 -7.16l5.89 0 0 10.87 10.41 0 0 -10.87 5.89 0 0 10.88 2.45 0 0 4.97 -2.45 0 -1.73 0 -14.57 0 -5.89 0 0 -15.85z"/>
 </g>
</svg>
